<?xml version="1.0" encoding="utf-8"?>
<!-- Generator: Adobe Illustrator 16.0.0, SVG Export Plug-In . SVG Version: 6.00 Build 0)  -->
<!DOCTYPE svg PUBLIC "-//W3C//DTD SVG 1.1//EN" "http://www.w3.org/Graphics/SVG/1.1/DTD/svg11.dtd">
<svg version="1.1" id="Layer_1" xmlns="http://www.w3.org/2000/svg" xmlns:xlink="http://www.w3.org/1999/xlink" x="0px" y="0px"
	 width="864px" height="864px" viewBox="-91.512 -181.008 864 864" enable-background="new -91.512 -181.008 864 864"
	 xml:space="preserve">
<g transform="translate(22.5, 22.5) ">
	<polygon fill="none" stroke="#000000" stroke-width="0.9" points="-4.5,-4.5 45.648,-4.5 45.648,12.492 95.796,12.492 95.796,-4.5 
		128.196,-4.5 128.196,12.492 178.344,12.492 178.344,-4.5 228.492,-4.5 228.492,45.648 211.5,45.648 211.5,95.796 228.492,95.796 
		228.492,128.196 211.5,128.196 211.5,178.344 228.492,178.344 228.492,228.492 178.344,228.492 178.344,211.5 128.196,211.5 
		128.196,228.492 95.796,228.492 95.796,211.5 45.648,211.5 45.648,228.492 -4.5,228.492 -4.5,178.344 12.492,178.344 
		12.492,128.196 -4.5,128.196 -4.5,95.796 12.492,95.796 12.492,45.648 -4.5,45.648 	"/>
</g>
<g transform="translate(313.73999999999995, 22.5) ">
	<polygon fill="none" stroke="#000000" stroke-width="0.9" points="-62.748,-4.5 -12.6,-4.5 -12.6,12.492 37.549,12.492 
		37.549,-4.5 69.947,-4.5 69.947,12.492 120.095,12.492 120.095,-4.5 170.244,-4.5 170.244,45.648 153.252,45.648 153.252,95.796 
		170.244,95.796 170.244,128.196 153.252,128.196 153.252,178.344 170.244,178.344 170.244,228.492 120.095,228.492 120.095,211.5 
		69.947,211.5 69.947,228.492 37.549,228.492 37.549,211.5 -12.6,211.5 -12.6,228.492 -62.748,228.492 -62.748,178.344 
		-45.756,178.344 -45.756,128.196 -62.748,128.196 -62.748,95.796 -45.756,95.796 -45.756,45.648 -62.748,45.648 	"/>
</g>
<g transform="translate(604.9799999999999, 22.5) ">
	<polygon fill="none" stroke="#000000" stroke-width="0.9" points="-104.004,-4.5 -85.197,-4.5 -85.197,12.492 -49.398,12.492 
		-49.398,-4.5 -13.602,-4.5 -13.602,12.492 22.197,12.492 22.197,-4.5 41.004,-4.5 41.004,45.648 57.996,45.648 57.996,95.796 
		41.004,95.796 41.004,128.196 57.996,128.196 57.996,178.344 41.004,178.344 41.004,228.492 22.197,228.492 22.197,211.5 
		-13.602,211.5 -13.602,228.492 -49.398,228.492 -49.398,211.5 -85.197,211.5 -85.197,228.492 -104.004,228.492 -104.004,178.344 
		-120.996,178.344 -120.996,128.196 -104.004,128.196 -104.004,95.796 -120.996,95.796 -120.996,45.648 -104.004,45.648 	"/>
</g>
<g transform="translate(604.9799999999999, 313.73999999999995) ">
	<polygon fill="none" stroke="#000000" stroke-width="0.9" points="-104.004,-62.748 -85.197,-62.748 -85.197,-45.756 
		-49.398,-45.756 -49.398,-62.748 -13.602,-62.748 -13.602,-45.756 22.197,-45.756 22.197,-62.748 41.004,-62.748 41.004,-12.599 
		57.996,-12.599 57.996,37.548 41.004,37.548 41.004,69.948 57.996,69.948 57.996,120.096 41.004,120.096 41.004,170.244 
		22.197,170.244 22.197,153.252 -13.602,153.252 -13.602,170.244 -49.398,170.244 -49.398,153.252 -85.197,153.252 -85.197,170.244 
		-104.004,170.244 -104.004,120.096 -120.996,120.096 -120.996,69.948 -104.004,69.948 -104.004,37.548 -120.996,37.548 
		-120.996,-12.599 -104.004,-12.599 	"/>
</g>
<g transform="translate(22.5, 313.73999999999995) ">
	<polygon fill="none" stroke="#000000" stroke-width="0.9" points="23.275,211.908 23.275,178.752 6.283,178.752 6.283,128.604 
		23.275,128.604 23.275,96.204 6.283,96.204 6.283,46.057 23.275,46.057 23.275,12.901 42.082,12.901 42.082,-39.748 77.88,-39.748 
		77.88,12.901 113.678,12.901 113.678,-39.748 149.477,-39.748 149.477,12.901 168.283,12.901 168.283,46.057 185.275,46.057 
		185.275,96.204 168.283,96.204 168.283,128.604 185.275,128.604 185.275,178.752 168.283,178.752 168.283,211.908 149.477,211.908 
		149.26,265.252 113.461,265.252 113.678,211.908 77.88,211.908 77.663,265.252 41.865,265.252 42.082,211.908 	"/>
	<circle fill="none" stroke="#000000" stroke-width="0.9" cx="95.563" cy="184.26" r="8.28"/>
	<circle fill="none" stroke="#000000" stroke-width="0.9" cx="95.563" cy="40.26" r="8.28"/>
	<circle fill="none" stroke="#000000" stroke-width="0.9" cx="95.563" cy="112.26" r="6.948"/>
	<circle fill="none" stroke="#000000" stroke-width="0.9" cx="95.563" cy="149.699" r="8.64"/>
	<circle fill="none" stroke="#000000" stroke-width="0.9" cx="95.562" cy="77.699" r="9"/>
</g>
<g transform="translate(313.73999999999995, 313.73999999999995) ">
	<polygon fill="none" stroke="#000000" stroke-width="0.9" points="-45.756,-45.756 -12.6,-45.756 -12.6,-62.748 37.549,-62.748 
		37.549,-45.756 69.947,-45.756 69.947,-62.748 120.095,-62.748 120.095,-45.756 153.252,-45.756 153.252,-26.949 170.244,-26.949 
		170.244,8.849 153.252,8.849 153.252,44.647 170.244,44.647 170.244,80.446 153.252,80.446 153.252,99.252 120.095,99.252 
		120.095,116.244 69.947,116.244 69.947,99.252 37.549,99.252 37.549,116.244 -12.6,116.244 -12.6,99.252 -45.756,99.252 
		-45.756,80.446 -62.748,80.446 -62.748,44.647 -45.756,44.647 -45.756,8.849 -62.748,8.849 -62.748,-26.949 -45.756,-26.949 	"/>
</g>
<rect x="567.972" y="331.632" fill="none" stroke="#000000" stroke-miterlimit="10" width="11.016" height="71.713"/>
<rect x="567.972" y="98.492" fill="none" stroke="#000000" stroke-miterlimit="10" width="11.016" height="72.008"/>
</svg>
